<svg width="25" height="24" viewBox="0 0 25 24" fill="none" xmlns="http://www.w3.org/2000/svg">
<path d="M11.1787 17H13.1787V13H17.1787V11H13.1787V7H11.1787V11H7.17871V13H11.1787V17ZM12.1787 22C10.7954 22 9.49538 21.7417 8.27871 21.225C7.06204 20.6917 6.00371 19.975 5.10371 19.075C4.20371 18.175 3.48704 17.1167 2.95371 15.9C2.43704 14.6833 2.17871 13.3833 2.17871 12C2.17871 10.6167 2.43704 9.31667 2.95371 8.1C3.48704 6.88333 4.20371 5.825 5.10371 4.925C6.00371 4.025 7.06204 3.31667 8.27871 2.8C9.49538 2.26667 10.7954 2 12.1787 2C13.562 2 14.862 2.26667 16.0787 2.8C17.2954 3.31667 18.3537 4.025 19.2537 4.925C20.1537 5.825 20.862 6.88333 21.3787 8.1C21.912 9.31667 22.1787 10.6167 22.1787 12C22.1787 13.3833 21.912 14.6833 21.3787 15.9C20.862 17.1167 20.1537 18.175 19.2537 19.075C18.3537 19.975 17.2954 20.6917 16.0787 21.225C14.862 21.7417 13.562 22 12.1787 22ZM12.1787 20C14.412 20 16.3037 19.225 17.8537 17.675C19.4037 16.125 20.1787 14.2333 20.1787 12C20.1787 9.76667 19.4037 7.875 17.8537 6.325C16.3037 4.775 14.412 4 12.1787 4C9.94538 4 8.05371 4.775 6.50371 6.325C4.95371 7.875 4.17871 9.76667 4.17871 12C4.17871 14.2333 4.95371 16.125 6.50371 17.675C8.05371 19.225 9.94538 20 12.1787 20Z" fill="#072C1C"/>
</svg>
