<svg width="32" height="32" viewBox="0 0 32 32" fill="none" xmlns="http://www.w3.org/2000/svg">
<path d="M29.3532 15.225C29.4817 14.7964 29.546 14.3536 29.546 13.9036C29.546 12.8929 29.2139 11.9214 28.6139 11.1286C28.7424 10.7 28.8067 10.2571 28.8067 9.80714C28.8067 8.79643 28.4746 7.825 27.8746 7.03214C28.0032 6.60357 28.0674 6.16071 28.0674 5.71071C28.0674 3.86786 26.971 2.20714 25.271 1.48214C24.9722 1.35332 24.65 1.28766 24.3246 1.28928H2.85672C2.22458 1.28928 1.71387 1.8 1.71387 2.43214V15.4321C1.71387 16.0643 2.22458 16.575 2.85672 16.575H7.47458L10.5389 27.675C11.0317 29.4643 12.6746 30.7143 14.5317 30.7143C15.5924 30.7143 16.5817 30.2929 17.3139 29.5214C18.046 28.7536 18.421 27.7464 18.3674 26.6857L18.1532 22.2964H26.721C27.1532 22.2964 27.5746 22.1821 27.946 21.9643C29.3889 21.125 30.2853 19.6036 30.2853 18C30.2853 16.9893 29.9532 16.0179 29.3532 15.225ZM4.2853 14V3.85714H7.17815V14H4.2853ZM26.6853 19.7286H15.4567L15.7996 26.8143C15.821 27.2393 15.6317 27.6393 15.2782 27.9036C15.0603 28.0643 14.7924 28.1464 14.5246 28.1429C14.1824 28.1395 13.8505 28.0253 13.5787 27.8173C13.307 27.6093 13.11 27.3188 13.0174 26.9893L9.46387 14.1143V3.85714H24.2996C24.6566 4.01713 24.9597 4.27684 25.1726 4.60504C25.3855 4.93324 25.499 5.31595 25.4996 5.70714C25.4996 6.05357 25.4174 6.38214 25.2532 6.68214L24.7567 7.58929L25.5389 8.26786C25.759 8.45853 25.9355 8.69439 26.0563 8.9594C26.1771 9.22441 26.2394 9.51233 26.2389 9.80357C26.2389 10.15 26.1567 10.4786 25.9924 10.7786L25.496 11.6857L26.2782 12.3643C26.4983 12.555 26.6748 12.7908 26.7956 13.0558C26.9164 13.3208 26.9786 13.6088 26.9782 13.9C26.9782 14.2464 26.896 14.575 26.7317 14.875L26.2317 15.7857L27.0139 16.4643C27.234 16.655 27.4105 16.8908 27.5313 17.1558C27.6521 17.4208 27.7144 17.7088 27.7139 18C27.7139 18.6821 27.321 19.3393 26.6853 19.7286Z" fill="#072C1C"/>
</svg>
