<svg width="17" height="17" viewBox="0 0 17 17" fill="none" xmlns="http://www.w3.org/2000/svg">
<g clip-path="url(#clip0_539_835)">
<path d="M15.4826 14.6473H1.51828C1.18245 14.6473 0.911133 14.9186 0.911133 15.2545V15.9375C0.911133 16.021 0.979436 16.0893 1.06292 16.0893H15.9379C16.0214 16.0893 16.0897 16.021 16.0897 15.9375V15.2545C16.0897 14.9186 15.8184 14.6473 15.4826 14.6473ZM3.67553 13.0536C3.71348 13.0536 3.75142 13.0498 3.78937 13.0441L6.98066 12.4844C7.01861 12.4768 7.05466 12.4597 7.08122 12.4313L15.124 4.38851C15.1416 4.37096 15.1555 4.35011 15.165 4.32716C15.1746 4.3042 15.1795 4.2796 15.1795 4.25475C15.1795 4.2299 15.1746 4.2053 15.165 4.18234C15.1555 4.15939 15.1416 4.13854 15.124 4.12099L11.9706 0.965743C11.9346 0.929694 11.8871 0.910721 11.8359 0.910721C11.7847 0.910721 11.7373 0.929694 11.7012 0.965743L3.65845 9.00849C3.62999 9.03695 3.61292 9.0711 3.60533 9.10905L3.04562 12.3003C3.02716 12.402 3.03376 12.5066 3.06483 12.6051C3.09591 12.7036 3.15053 12.7931 3.22397 12.8657C3.34919 12.9872 3.50667 13.0536 3.67553 13.0536Z" fill="#072C1C"/>
</g>
<defs>
<clipPath id="clip0_539_835">
<rect width="17" height="17" fill="white"/>
</clipPath>
</defs>
</svg>
