<svg width="17" height="17" viewBox="0 0 17 17" fill="none" xmlns="http://www.w3.org/2000/svg">
<g clip-path="url(#clip0_539_845)">
<path d="M16.5714 15.7366H2.60714C2.27132 15.7366 2 16.0079 2 16.3438V17.0268C2 17.1103 2.0683 17.1786 2.15179 17.1786H17.0268C17.1103 17.1786 17.1786 17.1103 17.1786 17.0268V16.3438C17.1786 16.0079 16.9073 15.7366 16.5714 15.7366ZM4.7644 14.1429C4.80234 14.1429 4.84029 14.1391 4.87824 14.1334L8.06953 13.5737C8.10748 13.5661 8.14353 13.549 8.17009 13.5205L16.2128 5.47779C16.2304 5.46024 16.2444 5.43939 16.2539 5.41644C16.2634 5.39348 16.2683 5.36888 16.2683 5.34403C16.2683 5.31918 16.2634 5.29458 16.2539 5.27162C16.2444 5.24867 16.2304 5.22782 16.2128 5.21027L13.0595 2.05502C13.0234 2.01897 12.976 2 12.9248 2C12.8736 2 12.8261 2.01897 12.7901 2.05502L4.74732 10.0978C4.71886 10.1262 4.70179 10.1604 4.6942 10.1983L4.13449 13.3896C4.11603 13.4913 4.12262 13.5959 4.1537 13.6944C4.18478 13.7929 4.2394 13.8824 4.31283 13.955C4.43806 14.0765 4.59554 14.1429 4.7644 14.1429Z" fill="#072C1C"/>
</g>
<defs>
<clipPath id="clip0_539_845">
<rect width="17" height="17" fill="white"/>
</clipPath>
</defs>
</svg>
