<svg width="17" height="17" viewBox="0 0 17 17" fill="none" xmlns="http://www.w3.org/2000/svg">
<path d="M14.5714 13.7366H0.607143C0.271317 13.7366 0 14.0079 0 14.3438V15.0268C0 15.1103 0.0683036 15.1786 0.151786 15.1786H15.0268C15.1103 15.1786 15.1786 15.1103 15.1786 15.0268V14.3438C15.1786 14.0079 14.9073 13.7366 14.5714 13.7366ZM2.7644 12.1429C2.80234 12.1429 2.84029 12.1391 2.87824 12.1334L6.06953 11.5737C6.10748 11.5661 6.14353 11.549 6.17009 11.5205L14.2128 3.47779C14.2304 3.46024 14.2444 3.43939 14.2539 3.41644C14.2634 3.39348 14.2683 3.36888 14.2683 3.34403C14.2683 3.31918 14.2634 3.29458 14.2539 3.27162C14.2444 3.24867 14.2304 3.22782 14.2128 3.21027L11.0595 0.0550224C11.0234 0.0189732 10.976 0 10.9248 0C10.8736 0 10.8261 0.0189732 10.7901 0.0550224L2.74732 8.09777C2.71886 8.12623 2.70179 8.16038 2.6942 8.19833L2.13449 11.3896C2.11603 11.4913 2.12262 11.5959 2.1537 11.6944C2.18478 11.7929 2.2394 11.8824 2.31283 11.955C2.43806 12.0765 2.59554 12.1429 2.7644 12.1429Z" fill="#072C1C"/>
</svg>
