<svg width="94" height="74" viewBox="0 0 94 74" fill="none" xmlns="http://www.w3.org/2000/svg">
<g filter="url(#filter0_d_539_629)">
<ellipse cx="46.8216" cy="32.8276" rx="42.8216" ry="32.8276" fill="#D4E09B"/>
<path d="M89.1431 32.8276C89.1431 41.7047 84.4508 49.7757 76.7968 55.6434C69.1423 61.5114 58.5461 65.1552 46.8216 65.1552C35.097 65.1552 24.5009 61.5114 16.8463 55.6434C9.19233 49.7757 4.5 41.7047 4.5 32.8276C4.5 23.9505 9.19233 15.8795 16.8463 10.0118C24.5009 4.14374 35.097 0.5 46.8216 0.5C58.5461 0.5 69.1423 4.14374 76.7968 10.0118C84.4508 15.8795 89.1431 23.9505 89.1431 32.8276Z" stroke="#072C1C"/>
</g>
<path d="M62.3532 30.225C62.4817 29.7964 62.546 29.3536 62.546 28.9036C62.546 27.8929 62.2139 26.9214 61.6139 26.1286C61.7424 25.7 61.8067 25.2571 61.8067 24.8071C61.8067 23.7964 61.4746 22.825 60.8746 22.0321C61.0032 21.6036 61.0674 21.1607 61.0674 20.7107C61.0674 18.8679 59.971 17.2071 58.271 16.4821C57.9722 16.3533 57.65 16.2877 57.3246 16.2893H35.8567C35.2246 16.2893 34.7139 16.8 34.7139 17.4321V30.4321C34.7139 31.0643 35.2246 31.575 35.8567 31.575H40.4746L43.5389 42.675C44.0317 44.4643 45.6746 45.7143 47.5317 45.7143C48.5924 45.7143 49.5817 45.2929 50.3139 44.5214C51.046 43.7536 51.421 42.7464 51.3674 41.6857L51.1532 37.2964H59.721C60.1532 37.2964 60.5746 37.1821 60.946 36.9643C62.3889 36.125 63.2853 34.6036 63.2853 33C63.2853 31.9893 62.9532 31.0179 62.3532 30.225ZM37.2853 29V18.8571H40.1782V29H37.2853ZM59.6853 34.7286H48.4567L48.7996 41.8143C48.821 42.2393 48.6317 42.6393 48.2782 42.9036C48.0603 43.0643 47.7924 43.1464 47.5246 43.1429C47.1824 43.1395 46.8505 43.0253 46.5787 42.8173C46.307 42.6093 46.11 42.3188 46.0174 41.9893L42.4639 29.1143V18.8571H57.2996C57.6566 19.0171 57.9597 19.2768 58.1726 19.605C58.3855 19.9332 58.499 20.3159 58.4996 20.7071C58.4996 21.0536 58.4174 21.3821 58.2532 21.6821L57.7567 22.5893L58.5389 23.2679C58.759 23.4585 58.9355 23.6944 59.0563 23.9594C59.1771 24.2244 59.2394 24.5123 59.2389 24.8036C59.2389 25.15 59.1567 25.4786 58.9924 25.7786L58.496 26.6857L59.2782 27.3643C59.4983 27.555 59.6748 27.7908 59.7956 28.0558C59.9164 28.3208 59.9786 28.6088 59.9782 28.9C59.9782 29.2464 59.896 29.575 59.7317 29.875L59.2317 30.7857L60.0139 31.4643C60.234 31.655 60.4105 31.8908 60.5313 32.1558C60.6521 32.4208 60.7144 32.7088 60.7139 33C60.7139 33.6821 60.321 34.3393 59.6853 34.7286Z" fill="#072C1C"/>
<defs>
<filter id="filter0_d_539_629" x="0" y="0" width="93.6436" height="73.6552" filterUnits="userSpaceOnUse" color-interpolation-filters="sRGB">
<feFlood flood-opacity="0" result="BackgroundImageFix"/>
<feColorMatrix in="SourceAlpha" type="matrix" values="0 0 0 0 0 0 0 0 0 0 0 0 0 0 0 0 0 0 127 0" result="hardAlpha"/>
<feOffset dy="4"/>
<feGaussianBlur stdDeviation="2"/>
<feComposite in2="hardAlpha" operator="out"/>
<feColorMatrix type="matrix" values="0 0 0 0 0 0 0 0 0 0 0 0 0 0 0 0 0 0 0.25 0"/>
<feBlend mode="normal" in2="BackgroundImageFix" result="effect1_dropShadow_539_629"/>
<feBlend mode="normal" in="SourceGraphic" in2="effect1_dropShadow_539_629" result="shape"/>
</filter>
</defs>
</svg>
