<svg width="103" height="74" viewBox="0 0 103 74" fill="none" xmlns="http://www.w3.org/2000/svg">
<g filter="url(#filter0_d_523_818)">
<path d="M98.3324 32.8276C98.3324 41.6822 93.1489 49.7519 84.6599 55.6291C76.1729 61.5049 64.421 65.1552 51.4162 65.1552C38.4114 65.1552 26.6595 61.5049 18.1725 55.6291C9.6835 49.7519 4.5 41.6822 4.5 32.8276C4.5 23.9729 9.6835 15.9032 18.1725 10.0261C26.6595 4.15025 38.4114 0.5 51.4162 0.5C64.421 0.5 76.1729 4.15025 84.6599 10.0261C93.1489 15.9032 98.3324 23.9729 98.3324 32.8276Z" fill="#D4E09B" stroke="#072C1C"/>
<path d="M41.4183 46.0776V44.6609L44.0168 43.2443C42.3133 43.2443 40.8769 42.7661 39.7076 41.8099C38.5383 40.8536 37.9536 39.679 37.9536 38.2859V24.8276C37.9536 22.8679 39.0652 21.4335 41.2883 20.5245C43.5115 19.6154 47.0195 19.1609 51.8122 19.1609C56.7782 19.1609 60.3295 19.5977 62.4661 20.4713C64.6026 21.3449 65.6709 22.797 65.6709 24.8276V38.2859C65.6709 39.679 65.0862 40.8536 63.9169 41.8099C62.7476 42.7661 61.3112 43.2443 59.6077 43.2443L62.2062 44.6609V46.0776H41.4183ZM41.4183 30.4943H50.0799V26.2443H41.4183V30.4943ZM53.5446 30.4943H62.2062V26.2443H53.5446V30.4943ZM45.7491 38.9943C46.4709 38.9943 47.0844 38.7877 47.5897 38.3745C48.095 37.9613 48.3476 37.4595 48.3476 36.8693C48.3476 36.279 48.095 35.7772 47.5897 35.364C47.0844 34.9509 46.4709 34.7443 45.7491 34.7443C45.0273 34.7443 44.4138 34.9509 43.9085 35.364C43.4032 35.7772 43.1506 36.279 43.1506 36.8693C43.1506 37.4595 43.4032 37.9613 43.9085 38.3745C44.4138 38.7877 45.0273 38.9943 45.7491 38.9943ZM57.8754 38.9943C58.5972 38.9943 59.2107 38.7877 59.716 38.3745C60.2213 37.9613 60.4739 37.4595 60.4739 36.8693C60.4739 36.279 60.2213 35.7772 59.716 35.364C59.2107 34.9509 58.5972 34.7443 57.8754 34.7443C57.1536 34.7443 56.5401 34.9509 56.0348 35.364C55.5295 35.7772 55.2769 36.279 55.2769 36.8693C55.2769 37.4595 55.5295 37.9613 56.0348 38.3745C56.5401 38.7877 57.1536 38.9943 57.8754 38.9943ZM44.0168 40.4109H59.6077C60.3584 40.4109 60.9791 40.2102 61.47 39.8088C61.9608 39.4074 62.2062 38.8998 62.2062 38.2859V33.3276H41.4183V38.2859C41.4183 38.8998 41.6637 39.4074 42.1545 39.8088C42.6453 40.2102 43.2661 40.4109 44.0168 40.4109ZM51.8122 21.9943C49.3292 21.9943 47.2721 22.1123 45.6408 22.3484C44.0095 22.5845 42.8619 22.9387 42.1978 23.4109H61.5999C61.0802 22.9387 60.0047 22.5845 58.3734 22.3484C56.7422 22.1123 54.5551 21.9943 51.8122 21.9943Z" fill="#072C1C"/>
</g>
<defs>
<filter id="filter0_d_523_818" x="0" y="0" width="102.833" height="73.6552" filterUnits="userSpaceOnUse" color-interpolation-filters="sRGB">
<feFlood flood-opacity="0" result="BackgroundImageFix"/>
<feColorMatrix in="SourceAlpha" type="matrix" values="0 0 0 0 0 0 0 0 0 0 0 0 0 0 0 0 0 0 127 0" result="hardAlpha"/>
<feOffset dy="4"/>
<feGaussianBlur stdDeviation="2"/>
<feComposite in2="hardAlpha" operator="out"/>
<feColorMatrix type="matrix" values="0 0 0 0 0 0 0 0 0 0 0 0 0 0 0 0 0 0 0.25 0"/>
<feBlend mode="normal" in2="BackgroundImageFix" result="effect1_dropShadow_523_818"/>
<feBlend mode="normal" in="SourceGraphic" in2="effect1_dropShadow_523_818" result="shape"/>
</filter>
</defs>
</svg>
