<svg width="94" height="75" viewBox="0 0 94 75" fill="none" xmlns="http://www.w3.org/2000/svg">
<g filter="url(#filter0_d_523_803)">
<path d="M89.1431 33.5862C89.1431 42.4633 84.4508 50.5343 76.7968 56.402C69.1423 62.2701 58.5461 65.9138 46.8216 65.9138C35.097 65.9138 24.5009 62.2701 16.8463 56.402C9.19233 50.5343 4.5 42.4633 4.5 33.5862C4.5 24.7091 9.19233 16.6381 16.8463 10.7704C24.5009 4.90236 35.097 1.25862 46.8216 1.25862C58.5461 1.25862 69.1423 4.90236 76.7968 10.7704C84.4508 16.6381 89.1431 24.7091 89.1431 33.5862Z" fill="#D4E09B" stroke="#072C1C"/>
<path d="M37.8551 25.6128L37.8551 25.6128L37.8582 25.6084C37.9347 25.499 38.1017 25.3423 38.4008 25.2105C38.6967 25.0801 39.0661 25.0002 39.4632 25C39.4633 25 39.4634 25 39.4635 25C39.4635 25 39.4636 25 39.4637 25H54.5359C54.536 25 54.5361 25 54.5362 25C54.5363 25 54.5364 25 54.5365 25C54.9335 25.0002 55.303 25.0801 55.5989 25.2105L56.2037 23.8378L55.5989 25.2105C55.898 25.3423 56.065 25.499 56.1414 25.6084L56.1445 25.6128L61.3332 32.9754V39.25C61.3332 39.2514 61.3335 39.4075 61.0369 39.6182C60.7342 39.8333 60.2442 40 59.6665 40H34.3332C33.7554 40 33.2655 39.8333 32.9628 39.6182C32.6662 39.4075 32.6665 39.2514 32.6665 39.25V32.9754L37.8551 25.6128Z" stroke="#072C1C" stroke-width="3" stroke-linecap="round" stroke-linejoin="round"/>
</g>
<defs>
<filter id="filter0_d_523_803" x="0" y="0.758617" width="93.6431" height="73.6552" filterUnits="userSpaceOnUse" color-interpolation-filters="sRGB">
<feFlood flood-opacity="0" result="BackgroundImageFix"/>
<feColorMatrix in="SourceAlpha" type="matrix" values="0 0 0 0 0 0 0 0 0 0 0 0 0 0 0 0 0 0 127 0" result="hardAlpha"/>
<feOffset dy="4"/>
<feGaussianBlur stdDeviation="2"/>
<feComposite in2="hardAlpha" operator="out"/>
<feColorMatrix type="matrix" values="0 0 0 0 0 0 0 0 0 0 0 0 0 0 0 0 0 0 0.25 0"/>
<feBlend mode="normal" in2="BackgroundImageFix" result="effect1_dropShadow_523_803"/>
<feBlend mode="normal" in="SourceGraphic" in2="effect1_dropShadow_523_803" result="shape"/>
</filter>
</defs>
</svg>
