<svg width="102" height="74" viewBox="0 0 102 74" fill="none" xmlns="http://www.w3.org/2000/svg">
<g filter="url(#filter0_d_523_824)">
<ellipse cx="50.7144" cy="32.8276" rx="46.7144" ry="32.8276" fill="#D4E09B"/>
<path d="M96.9289 32.8276C96.9289 41.6856 91.8203 49.7554 83.4591 55.6311C75.0993 61.5058 63.5238 65.1552 50.7144 65.1552C37.905 65.1552 26.3296 61.5058 17.9698 55.6311C9.60857 49.7554 4.5 41.6856 4.5 32.8276C4.5 23.9696 9.60857 15.8998 17.9698 10.0241C26.3296 4.14939 37.905 0.5 50.7144 0.5C63.5238 0.5 75.0993 4.14939 83.4591 10.0241C91.8203 15.8998 96.9289 23.9696 96.9289 32.8276Z" stroke="#072C1C"/>
</g>
<mask id="path-3-outside-1_523_824" maskUnits="userSpaceOnUse" x="26.6753" y="10.3276" width="51" height="41" fill="black">
<rect fill="white" x="26.6753" y="10.3276" width="51" height="41"/>
<path d="M51.3619 11.4646C51.1035 11.5417 48.5386 12.6216 45.6771 13.8712C41.0355 15.8921 40.423 16.1775 40.1455 16.4706C39.533 17.1185 39.5426 17.0568 39.5426 22.7416V27.8942L38.04 28.5499C37.2074 28.9124 34.8053 29.946 32.6998 30.8562C28.441 32.692 28.0965 32.8848 27.8286 33.6176C27.6946 33.9724 27.6754 34.7206 27.6754 39.2407C27.6754 45.1723 27.6467 44.9409 28.4315 45.558C28.7856 45.8357 29.8862 46.3139 34.0875 48.0417C36.9586 49.2142 39.4947 50.2169 39.734 50.2709C39.9732 50.3249 40.3561 50.3403 40.5953 50.3172C41.0547 50.2632 44.8732 48.7591 45.2656 48.4737C45.39 48.3811 45.4762 48.2268 45.4762 48.0957C45.4762 47.8334 45.1029 47.4941 44.8158 47.4941C44.7105 47.4941 43.8301 47.8257 42.8539 48.2268C41.8873 48.6279 41.0643 48.9596 41.0355 48.9596C41.0068 48.9596 40.9877 46.6302 40.9973 43.7916L41.026 38.6159L46.1748 36.5024C49.0076 35.3377 51.3427 34.3812 51.3715 34.3812C51.3906 34.3812 51.4097 36.703 51.4097 39.5415V44.7095L49.4765 45.504C48.4047 45.9359 47.4381 46.3756 47.3232 46.4682C47.1988 46.5607 47.1031 46.7304 47.1031 46.8384C47.1031 47.0775 47.4955 47.4169 47.7826 47.4169C47.8879 47.4169 48.931 47.0312 50.0986 46.553L52.2041 45.6891L52.7879 45.9359C53.1132 46.0748 55.6302 47.1161 58.396 48.25L63.4204 50.3095H64.0904H64.7603L68.3013 48.8439C70.2536 48.0417 72.6653 47.0544 73.6607 46.6456C75.7183 45.7971 76.2542 45.4577 76.5126 44.8329C76.6562 44.5012 76.6753 43.9073 76.6753 39.2407C76.6753 34.7206 76.6562 33.9724 76.5222 33.6176C76.2733 32.9388 75.7853 32.6303 73.3065 31.5658L71.1532 30.6402L71.2872 30.3317C71.5743 29.6837 71.7179 28.9895 71.7179 28.2336C71.7179 26.8992 71.4499 26.2821 70.8566 26.2821C70.2728 26.2821 70.0144 26.6215 70.1771 27.1923C70.3302 27.7399 70.3015 28.8738 70.1196 29.4446C69.8325 30.3702 69.3445 31.0336 68.4448 31.7586C67.1911 32.7691 65.8322 33.2396 64.1382 33.2473C63.1046 33.2473 62.3581 33.1239 61.4777 32.7922C58.8076 31.8049 57.3625 29.4909 57.9654 27.1691C58.3291 25.7499 59.6497 24.3846 61.2671 23.7444C63.698 22.7879 66.4447 23.1273 68.4544 24.6391C68.7989 24.8937 69.0095 24.994 69.2105 24.994C69.622 24.994 69.8804 24.778 69.8804 24.4309C69.8804 24.184 69.8038 24.0915 69.3827 23.7598C66.3394 21.4612 61.6691 21.4766 58.7214 23.8138C57.6974 24.6237 57.171 25.3102 56.7212 26.4364C56.482 27.0226 56.4533 27.2077 56.4437 28.1719C56.4341 29.2055 56.549 29.7686 56.9126 30.5322C56.9701 30.6479 56.8265 30.7173 53.8789 31.99L52.941 32.3911V27.2309V22.0783L58.0228 19.9956C60.8173 18.8463 63.162 17.9053 63.2386 17.8899C63.3535 17.8667 63.3726 18.0442 63.3726 18.9775C63.3726 20.0342 63.3822 20.0882 63.5927 20.2502C63.8702 20.4585 64.2339 20.4662 64.5306 20.2733C64.7603 20.1268 64.7603 20.1036 64.7603 18.6689V17.2188L64.4732 16.8023C64.32 16.5709 64.0329 16.2855 63.8511 16.1698C63.3726 15.869 53.2472 11.5032 52.7879 11.4029C52.2711 11.2872 51.917 11.3026 51.3619 11.4646ZM57.4677 14.6657C60.1857 15.8381 62.4156 16.8331 62.4156 16.8563C62.4156 16.8871 60.1091 17.8513 57.2955 19.0006L52.1849 21.0987L47.0074 18.9775L41.8299 16.8563L45.3996 15.3136C47.3615 14.4651 49.6392 13.4778 50.4527 13.1153C51.5533 12.637 52.0127 12.475 52.2232 12.4905C52.3859 12.5059 54.7402 13.4855 57.4677 14.6657ZM46.3375 19.9956L51.4097 22.0783V27.2309V32.3834L51.1992 32.2909C50.5867 32.0286 41.8203 28.2413 41.4375 28.0639L40.9781 27.8634V22.865C40.9781 18.4452 40.9973 17.8667 41.1217 17.8899C41.1982 17.9053 43.5525 18.8463 46.3375 19.9956ZM45.4379 31.1184C48.2515 32.3372 50.5484 33.3476 50.5484 33.3708C50.5484 33.4016 48.2324 34.3658 45.4092 35.5151L40.2795 37.6209L37.351 36.4176C35.7432 35.7542 33.4176 34.79 32.1926 34.2887L29.9532 33.363L35.0637 31.1416C37.8678 29.9228 40.2029 28.9201 40.2508 28.9124C40.2891 28.9047 42.6242 29.8997 45.4379 31.1184ZM58.1281 32.1443C59.1042 33.1239 60.6259 33.903 62.1763 34.2269C62.741 34.3504 63.2386 34.3889 64.0425 34.3889C65.4111 34.3889 66.3202 34.2192 67.5835 33.7101C68.3779 33.3939 68.6267 33.2396 69.5167 32.5223L70.5407 31.6969L72.4548 32.5146C73.5075 32.9697 74.3306 33.363 74.3019 33.3862C74.2636 33.417 71.9476 34.3812 69.1626 35.5305L64.0808 37.6131L58.9415 35.5151C56.1183 34.3581 53.8023 33.4016 53.8023 33.3785C53.8023 33.3245 57.5634 31.6815 57.64 31.7046C57.6687 31.7124 57.8888 31.9129 58.1281 32.1443ZM34.3746 36.487L39.4947 38.585L39.5234 43.7762L39.5426 48.9673L35.1785 47.1778C29.4938 44.8561 29.4746 44.8483 29.2832 44.5861C29.1205 44.3855 29.111 43.9922 29.111 39.3718C29.111 36.6258 29.1397 34.3812 29.1875 34.3812C29.2258 34.3812 31.561 35.33 34.3746 36.487ZM58.2621 36.5255L63.3247 38.6159L63.3535 43.7839C63.363 46.6302 63.3439 48.9596 63.3152 48.9596C63.2769 48.9596 62.5113 48.6511 61.6117 48.2731C60.7121 47.9029 58.396 46.9387 56.4628 46.1519L52.941 44.7095V39.5338C52.941 35.2991 52.9601 34.3735 53.0654 34.4044C53.1324 34.4275 55.4675 35.384 58.2621 36.5255ZM75.2397 39.3564C75.2397 43.6065 75.2206 44.3701 75.0962 44.5629C74.9239 44.8406 74.8856 44.8561 69.3732 47.1007L64.8081 48.9673L64.8273 43.7839L64.856 38.5927L69.9761 36.487C72.7898 35.33 75.1249 34.3812 75.1728 34.3812C75.211 34.3812 75.2397 36.6181 75.2397 39.3564Z"/>
</mask>
<path d="M51.3619 11.4646C51.1035 11.5417 48.5386 12.6216 45.6771 13.8712C41.0355 15.8921 40.423 16.1775 40.1455 16.4706C39.533 17.1185 39.5426 17.0568 39.5426 22.7416V27.8942L38.04 28.5499C37.2074 28.9124 34.8053 29.946 32.6998 30.8562C28.441 32.692 28.0965 32.8848 27.8286 33.6176C27.6946 33.9724 27.6754 34.7206 27.6754 39.2407C27.6754 45.1723 27.6467 44.9409 28.4315 45.558C28.7856 45.8357 29.8862 46.3139 34.0875 48.0417C36.9586 49.2142 39.4947 50.2169 39.734 50.2709C39.9732 50.3249 40.3561 50.3403 40.5953 50.3172C41.0547 50.2632 44.8732 48.7591 45.2656 48.4737C45.39 48.3811 45.4762 48.2268 45.4762 48.0957C45.4762 47.8334 45.1029 47.4941 44.8158 47.4941C44.7105 47.4941 43.8301 47.8257 42.8539 48.2268C41.8873 48.6279 41.0643 48.9596 41.0355 48.9596C41.0068 48.9596 40.9877 46.6302 40.9973 43.7916L41.026 38.6159L46.1748 36.5024C49.0076 35.3377 51.3427 34.3812 51.3715 34.3812C51.3906 34.3812 51.4097 36.703 51.4097 39.5415V44.7095L49.4765 45.504C48.4047 45.9359 47.4381 46.3756 47.3232 46.4682C47.1988 46.5607 47.1031 46.7304 47.1031 46.8384C47.1031 47.0775 47.4955 47.4169 47.7826 47.4169C47.8879 47.4169 48.931 47.0312 50.0986 46.553L52.2041 45.6891L52.7879 45.9359C53.1132 46.0748 55.6302 47.1161 58.396 48.25L63.4204 50.3095H64.0904H64.7603L68.3013 48.8439C70.2536 48.0417 72.6653 47.0544 73.6607 46.6456C75.7183 45.7971 76.2542 45.4577 76.5126 44.8329C76.6562 44.5012 76.6753 43.9073 76.6753 39.2407C76.6753 34.7206 76.6562 33.9724 76.5222 33.6176C76.2733 32.9388 75.7853 32.6303 73.3065 31.5658L71.1532 30.6402L71.2872 30.3317C71.5743 29.6837 71.7179 28.9895 71.7179 28.2336C71.7179 26.8992 71.4499 26.2821 70.8566 26.2821C70.2728 26.2821 70.0144 26.6215 70.1771 27.1923C70.3302 27.7399 70.3015 28.8738 70.1196 29.4446C69.8325 30.3702 69.3445 31.0336 68.4448 31.7586C67.1911 32.7691 65.8322 33.2396 64.1382 33.2473C63.1046 33.2473 62.3581 33.1239 61.4777 32.7922C58.8076 31.8049 57.3625 29.4909 57.9654 27.1691C58.3291 25.7499 59.6497 24.3846 61.2671 23.7444C63.698 22.7879 66.4447 23.1273 68.4544 24.6391C68.7989 24.8937 69.0095 24.994 69.2105 24.994C69.622 24.994 69.8804 24.778 69.8804 24.4309C69.8804 24.184 69.8038 24.0915 69.3827 23.7598C66.3394 21.4612 61.6691 21.4766 58.7214 23.8138C57.6974 24.6237 57.171 25.3102 56.7212 26.4364C56.482 27.0226 56.4533 27.2077 56.4437 28.1719C56.4341 29.2055 56.549 29.7686 56.9126 30.5322C56.9701 30.6479 56.8265 30.7173 53.8789 31.99L52.941 32.3911V27.2309V22.0783L58.0228 19.9956C60.8173 18.8463 63.162 17.9053 63.2386 17.8899C63.3535 17.8667 63.3726 18.0442 63.3726 18.9775C63.3726 20.0342 63.3822 20.0882 63.5927 20.2502C63.8702 20.4585 64.2339 20.4662 64.5306 20.2733C64.7603 20.1268 64.7603 20.1036 64.7603 18.6689V17.2188L64.4732 16.8023C64.32 16.5709 64.0329 16.2855 63.8511 16.1698C63.3726 15.869 53.2472 11.5032 52.7879 11.4029C52.2711 11.2872 51.917 11.3026 51.3619 11.4646ZM57.4677 14.6657C60.1857 15.8381 62.4156 16.8331 62.4156 16.8563C62.4156 16.8871 60.1091 17.8513 57.2955 19.0006L52.1849 21.0987L47.0074 18.9775L41.8299 16.8563L45.3996 15.3136C47.3615 14.4651 49.6392 13.4778 50.4527 13.1153C51.5533 12.637 52.0127 12.475 52.2232 12.4905C52.3859 12.5059 54.7402 13.4855 57.4677 14.6657ZM46.3375 19.9956L51.4097 22.0783V27.2309V32.3834L51.1992 32.2909C50.5867 32.0286 41.8203 28.2413 41.4375 28.0639L40.9781 27.8634V22.865C40.9781 18.4452 40.9973 17.8667 41.1217 17.8899C41.1982 17.9053 43.5525 18.8463 46.3375 19.9956ZM45.4379 31.1184C48.2515 32.3372 50.5484 33.3476 50.5484 33.3708C50.5484 33.4016 48.2324 34.3658 45.4092 35.5151L40.2795 37.6209L37.351 36.4176C35.7432 35.7542 33.4176 34.79 32.1926 34.2887L29.9532 33.363L35.0637 31.1416C37.8678 29.9228 40.2029 28.9201 40.2508 28.9124C40.2891 28.9047 42.6242 29.8997 45.4379 31.1184ZM58.1281 32.1443C59.1042 33.1239 60.6259 33.903 62.1763 34.2269C62.741 34.3504 63.2386 34.3889 64.0425 34.3889C65.4111 34.3889 66.3202 34.2192 67.5835 33.7101C68.3779 33.3939 68.6267 33.2396 69.5167 32.5223L70.5407 31.6969L72.4548 32.5146C73.5075 32.9697 74.3306 33.363 74.3019 33.3862C74.2636 33.417 71.9476 34.3812 69.1626 35.5305L64.0808 37.6131L58.9415 35.5151C56.1183 34.3581 53.8023 33.4016 53.8023 33.3785C53.8023 33.3245 57.5634 31.6815 57.64 31.7046C57.6687 31.7124 57.8888 31.9129 58.1281 32.1443ZM34.3746 36.487L39.4947 38.585L39.5234 43.7762L39.5426 48.9673L35.1785 47.1778C29.4938 44.8561 29.4746 44.8483 29.2832 44.5861C29.1205 44.3855 29.111 43.9922 29.111 39.3718C29.111 36.6258 29.1397 34.3812 29.1875 34.3812C29.2258 34.3812 31.561 35.33 34.3746 36.487ZM58.2621 36.5255L63.3247 38.6159L63.3535 43.7839C63.363 46.6302 63.3439 48.9596 63.3152 48.9596C63.2769 48.9596 62.5113 48.6511 61.6117 48.2731C60.7121 47.9029 58.396 46.9387 56.4628 46.1519L52.941 44.7095V39.5338C52.941 35.2991 52.9601 34.3735 53.0654 34.4044C53.1324 34.4275 55.4675 35.384 58.2621 36.5255ZM75.2397 39.3564C75.2397 43.6065 75.2206 44.3701 75.0962 44.5629C74.9239 44.8406 74.8856 44.8561 69.3732 47.1007L64.8081 48.9673L64.8273 43.7839L64.856 38.5927L69.9761 36.487C72.7898 35.33 75.1249 34.3812 75.1728 34.3812C75.211 34.3812 75.2397 36.6181 75.2397 39.3564Z" fill="#072C1C"/>
<path d="M51.3619 11.4646C51.1035 11.5417 48.5386 12.6216 45.6771 13.8712C41.0355 15.8921 40.423 16.1775 40.1455 16.4706C39.533 17.1185 39.5426 17.0568 39.5426 22.7416V27.8942L38.04 28.5499C37.2074 28.9124 34.8053 29.946 32.6998 30.8562C28.441 32.692 28.0965 32.8848 27.8286 33.6176C27.6946 33.9724 27.6754 34.7206 27.6754 39.2407C27.6754 45.1723 27.6467 44.9409 28.4315 45.558C28.7856 45.8357 29.8862 46.3139 34.0875 48.0417C36.9586 49.2142 39.4947 50.2169 39.734 50.2709C39.9732 50.3249 40.3561 50.3403 40.5953 50.3172C41.0547 50.2632 44.8732 48.7591 45.2656 48.4737C45.39 48.3811 45.4762 48.2268 45.4762 48.0957C45.4762 47.8334 45.1029 47.4941 44.8158 47.4941C44.7105 47.4941 43.8301 47.8257 42.8539 48.2268C41.8873 48.6279 41.0643 48.9596 41.0355 48.9596C41.0068 48.9596 40.9877 46.6302 40.9973 43.7916L41.026 38.6159L46.1748 36.5024C49.0076 35.3377 51.3427 34.3812 51.3715 34.3812C51.3906 34.3812 51.4097 36.703 51.4097 39.5415V44.7095L49.4765 45.504C48.4047 45.9359 47.4381 46.3756 47.3232 46.4682C47.1988 46.5607 47.1031 46.7304 47.1031 46.8384C47.1031 47.0775 47.4955 47.4169 47.7826 47.4169C47.8879 47.4169 48.931 47.0312 50.0986 46.553L52.2041 45.6891L52.7879 45.9359C53.1132 46.0748 55.6302 47.1161 58.396 48.25L63.4204 50.3095H64.0904H64.7603L68.3013 48.8439C70.2536 48.0417 72.6653 47.0544 73.6607 46.6456C75.7183 45.7971 76.2542 45.4577 76.5126 44.8329C76.6562 44.5012 76.6753 43.9073 76.6753 39.2407C76.6753 34.7206 76.6562 33.9724 76.5222 33.6176C76.2733 32.9388 75.7853 32.6303 73.3065 31.5658L71.1532 30.6402L71.2872 30.3317C71.5743 29.6837 71.7179 28.9895 71.7179 28.2336C71.7179 26.8992 71.4499 26.2821 70.8566 26.2821C70.2728 26.2821 70.0144 26.6215 70.1771 27.1923C70.3302 27.7399 70.3015 28.8738 70.1196 29.4446C69.8325 30.3702 69.3445 31.0336 68.4448 31.7586C67.1911 32.7691 65.8322 33.2396 64.1382 33.2473C63.1046 33.2473 62.3581 33.1239 61.4777 32.7922C58.8076 31.8049 57.3625 29.4909 57.9654 27.1691C58.3291 25.7499 59.6497 24.3846 61.2671 23.7444C63.698 22.7879 66.4447 23.1273 68.4544 24.6391C68.7989 24.8937 69.0095 24.994 69.2105 24.994C69.622 24.994 69.8804 24.778 69.8804 24.4309C69.8804 24.184 69.8038 24.0915 69.3827 23.7598C66.3394 21.4612 61.6691 21.4766 58.7214 23.8138C57.6974 24.6237 57.171 25.3102 56.7212 26.4364C56.482 27.0226 56.4533 27.2077 56.4437 28.1719C56.4341 29.2055 56.549 29.7686 56.9126 30.5322C56.9701 30.6479 56.8265 30.7173 53.8789 31.99L52.941 32.3911V27.2309V22.0783L58.0228 19.9956C60.8173 18.8463 63.162 17.9053 63.2386 17.8899C63.3535 17.8667 63.3726 18.0442 63.3726 18.9775C63.3726 20.0342 63.3822 20.0882 63.5927 20.2502C63.8702 20.4585 64.2339 20.4662 64.5306 20.2733C64.7603 20.1268 64.7603 20.1036 64.7603 18.6689V17.2188L64.4732 16.8023C64.32 16.5709 64.0329 16.2855 63.8511 16.1698C63.3726 15.869 53.2472 11.5032 52.7879 11.4029C52.2711 11.2872 51.917 11.3026 51.3619 11.4646ZM57.4677 14.6657C60.1857 15.8381 62.4156 16.8331 62.4156 16.8563C62.4156 16.8871 60.1091 17.8513 57.2955 19.0006L52.1849 21.0987L47.0074 18.9775L41.8299 16.8563L45.3996 15.3136C47.3615 14.4651 49.6392 13.4778 50.4527 13.1153C51.5533 12.637 52.0127 12.475 52.2232 12.4905C52.3859 12.5059 54.7402 13.4855 57.4677 14.6657ZM46.3375 19.9956L51.4097 22.0783V27.2309V32.3834L51.1992 32.2909C50.5867 32.0286 41.8203 28.2413 41.4375 28.0639L40.9781 27.8634V22.865C40.9781 18.4452 40.9973 17.8667 41.1217 17.8899C41.1982 17.9053 43.5525 18.8463 46.3375 19.9956ZM45.4379 31.1184C48.2515 32.3372 50.5484 33.3476 50.5484 33.3708C50.5484 33.4016 48.2324 34.3658 45.4092 35.5151L40.2795 37.6209L37.351 36.4176C35.7432 35.7542 33.4176 34.79 32.1926 34.2887L29.9532 33.363L35.0637 31.1416C37.8678 29.9228 40.2029 28.9201 40.2508 28.9124C40.2891 28.9047 42.6242 29.8997 45.4379 31.1184ZM58.1281 32.1443C59.1042 33.1239 60.6259 33.903 62.1763 34.2269C62.741 34.3504 63.2386 34.3889 64.0425 34.3889C65.4111 34.3889 66.3202 34.2192 67.5835 33.7101C68.3779 33.3939 68.6267 33.2396 69.5167 32.5223L70.5407 31.6969L72.4548 32.5146C73.5075 32.9697 74.3306 33.363 74.3019 33.3862C74.2636 33.417 71.9476 34.3812 69.1626 35.5305L64.0808 37.6131L58.9415 35.5151C56.1183 34.3581 53.8023 33.4016 53.8023 33.3785C53.8023 33.3245 57.5634 31.6815 57.64 31.7046C57.6687 31.7124 57.8888 31.9129 58.1281 32.1443ZM34.3746 36.487L39.4947 38.585L39.5234 43.7762L39.5426 48.9673L35.1785 47.1778C29.4938 44.8561 29.4746 44.8483 29.2832 44.5861C29.1205 44.3855 29.111 43.9922 29.111 39.3718C29.111 36.6258 29.1397 34.3812 29.1875 34.3812C29.2258 34.3812 31.561 35.33 34.3746 36.487ZM58.2621 36.5255L63.3247 38.6159L63.3535 43.7839C63.363 46.6302 63.3439 48.9596 63.3152 48.9596C63.2769 48.9596 62.5113 48.6511 61.6117 48.2731C60.7121 47.9029 58.396 46.9387 56.4628 46.1519L52.941 44.7095V39.5338C52.941 35.2991 52.9601 34.3735 53.0654 34.4044C53.1324 34.4275 55.4675 35.384 58.2621 36.5255ZM75.2397 39.3564C75.2397 43.6065 75.2206 44.3701 75.0962 44.5629C74.9239 44.8406 74.8856 44.8561 69.3732 47.1007L64.8081 48.9673L64.8273 43.7839L64.856 38.5927L69.9761 36.487C72.7898 35.33 75.1249 34.3812 75.1728 34.3812C75.211 34.3812 75.2397 36.6181 75.2397 39.3564Z" stroke="#072C1C" mask="url(#path-3-outside-1_523_824)"/>
<path d="M72.4048 25.7687C72.1906 25.8236 69.3556 27.9395 67.7807 29.1943L67.3397 29.5607L65.9915 28.6722C64.9206 27.9578 64.5804 27.7838 64.278 27.7838C63.774 27.7838 63.396 28.0677 63.396 28.4616C63.396 28.7455 63.5598 28.8829 65.16 29.9729C66.6971 31.0171 66.9869 31.1728 67.3523 31.1728C67.7303 31.1728 67.9823 31.0171 69.9604 29.4966C73.7781 26.593 73.6395 26.7121 73.6395 26.4007C73.6395 25.9519 72.9592 25.6038 72.4048 25.7687Z" fill="#072C1C"/>
<defs>
<filter id="filter0_d_523_824" x="0" y="0" width="101.429" height="73.6552" filterUnits="userSpaceOnUse" color-interpolation-filters="sRGB">
<feFlood flood-opacity="0" result="BackgroundImageFix"/>
<feColorMatrix in="SourceAlpha" type="matrix" values="0 0 0 0 0 0 0 0 0 0 0 0 0 0 0 0 0 0 127 0" result="hardAlpha"/>
<feOffset dy="4"/>
<feGaussianBlur stdDeviation="2"/>
<feComposite in2="hardAlpha" operator="out"/>
<feColorMatrix type="matrix" values="0 0 0 0 0 0 0 0 0 0 0 0 0 0 0 0 0 0 0.25 0"/>
<feBlend mode="normal" in2="BackgroundImageFix" result="effect1_dropShadow_523_824"/>
<feBlend mode="normal" in="SourceGraphic" in2="effect1_dropShadow_523_824" result="shape"/>
</filter>
</defs>
</svg>
