<svg width="60" height="48" viewBox="0 0 60 48" fill="none" xmlns="http://www.w3.org/2000/svg">
<path d="M45.0092 24.8234C45.7029 23.981 46.087 22.9489 46.087 21.875C46.087 20.1712 45.0505 18.5585 43.3822 17.6592C42.9527 17.4277 42.4637 17.3058 41.9658 17.3062H32.0633L32.3111 12.6426C32.3689 11.5156 31.9353 10.4455 31.0929 9.62969C30.6795 9.22756 30.1807 8.90762 29.6274 8.68962C29.0741 8.47163 28.4781 8.36022 27.876 8.36228C25.7287 8.36228 23.8292 9.6904 23.2593 11.5915L19.7121 23.3929H14.3727C13.6418 23.3929 13.0513 23.9355 13.0513 24.6071V38.4196C13.0513 39.0913 13.6418 39.6339 14.3727 39.6339H39.2032C39.5831 39.6339 39.9547 39.5656 40.2975 39.429C42.2631 38.6587 43.5308 36.8942 43.5308 34.9362C43.5308 34.458 43.4565 33.9875 43.3079 33.5321C44.0016 32.6897 44.3856 31.6576 44.3856 30.5837C44.3856 30.1056 44.3113 29.635 44.1627 29.1797C44.8564 28.3373 45.2404 27.3051 45.2404 26.2312C45.2322 25.7531 45.1579 25.2788 45.0092 24.8234ZM16.0245 36.9018V26.125H19.3694V36.9018H16.0245ZM42.3044 23.5067L41.4 24.2277L41.974 25.1915C42.1631 25.509 42.2612 25.8655 42.259 26.2275C42.259 26.8536 41.9617 27.4493 41.4496 27.8591L40.5452 28.5801L41.1192 29.544C41.3083 29.8615 41.4064 30.218 41.4042 30.5799C41.4042 31.206 41.1069 31.8018 40.5948 32.2116L39.6904 32.9326L40.2644 33.8964C40.4535 34.2139 40.5516 34.5704 40.5494 34.9324C40.5494 35.7824 40.0043 36.5489 39.1619 36.898H22.0122V26.0036L26.121 12.3239C26.227 11.9733 26.4544 11.6639 26.7689 11.4428C27.0833 11.2216 27.4677 11.1006 27.8637 11.0982C28.1775 11.0982 28.4872 11.1817 28.735 11.3525C29.1438 11.6333 29.3627 12.0583 29.3379 12.5098L28.9414 20.0384H41.9245C42.6595 20.452 43.1138 21.1502 43.1138 21.875C43.1138 22.5011 42.8165 23.0931 42.3044 23.5067Z" fill="#072C1C"/>
</svg>
