<svg width="593" height="182" viewBox="0 0 593 182" fill="none" xmlns="http://www.w3.org/2000/svg">
<path d="M3.49463 180.732L22.9691 60.5804C24.0132 54.1392 27.4768 48.3395 32.6527 44.3659L60.4644 23.0144L89.9274 5.53584C92.74 3.86729 95.95 2.98679 99.2203 2.98679H101.813C110.44 2.98679 117.434 9.98053 117.434 18.6078V18.6078C117.434 21.4893 118.231 24.3146 119.737 26.7713L132.455 47.52C133.689 49.5319 134.638 51.7045 135.276 53.9763L143.91 84.7068C144.543 86.9609 144.864 89.2913 144.864 91.6327V98.9267C144.864 103.32 145.994 107.64 148.147 111.47L156.252 125.896C157.086 127.38 157.524 129.053 157.524 130.755V130.937C157.524 136.316 161.884 140.676 167.263 140.676V140.676C169.168 140.676 171.032 140.117 172.623 139.069L177.66 135.749C184.848 131.011 189.174 122.978 189.174 114.369V99.5948C189.174 92.2854 192.298 85.3243 197.758 80.4652L201.706 76.9522C204.507 74.4601 208.125 73.0833 211.874 73.0833H214.084C218.247 73.0833 222.086 70.837 224.125 67.2078V67.2078C227.037 62.0248 233.416 59.9101 238.848 62.3269L263.023 73.0833L314.297 104.717C315.279 105.323 316.207 106.014 317.069 106.781V106.781C328.098 116.595 345.599 111.357 349.423 97.0979L353.667 81.2736C355.093 75.9554 358.195 71.2386 362.514 67.8227L374.853 58.0626L385.149 49.1783C392.97 42.4295 404.08 41.0412 413.322 45.6579L431.766 54.8721C435.944 56.9593 439.472 60.1494 441.967 64.0972L453.181 81.8364C455.769 85.9307 457.143 90.6751 457.143 95.5188V105.628V113.157C457.143 121.443 463.859 128.159 472.145 128.159V128.159C478.359 128.159 483.93 124.327 486.154 118.524L501.855 77.5413C502.983 74.5947 504.647 71.8821 506.762 69.5402L524.034 50.4141C530.829 42.8892 541.424 40.0823 551.054 43.2559L565.543 48.0313C570.522 49.6723 574.878 52.8021 578.021 56.9979L584.959 66.2581C588.278 70.6886 590.072 76.0755 590.072 81.6115V105.628" stroke="#008746" stroke-width="5.12137"/>
</svg>
