<svg width="1616" height="133" viewBox="0 0 1616 133" fill="none" xmlns="http://www.w3.org/2000/svg">
<path fill-rule="evenodd" clip-rule="evenodd" d="M0 0L66.9125 4.99711C135.088 9.99422 268.913 19.9884 404 36.9017C539.088 54.1994 672.913 78.8006 808 83.7977C943.088 88.7948 1076.91 73.8035 1212 69.1908C1347.09 64.1936 1480.91 69.1908 1549.09 71.4971L1616 73.8035V133H1549.09C1480.91 133 1347.09 133 1212 133C1076.91 133 943.088 133 808 133C672.913 133 539.088 133 404 133C268.913 133 135.088 133 66.9125 133H0V0Z" fill="#0C9B4B"/>
</svg>
